<?xml version="1.0" encoding="UTF-8"?>
<svg xmlns="http://www.w3.org/2000/svg" viewBox="0 0 222 107.1">
  <defs>
    <style>
      .cls-1 {
        font-size: 29px;
      }

      .cls-1, .cls-2 {
        fill: #32465c;
        font-family: BebasNeue-Regular, 'Bebas Neue';
      }

      .cls-2 {
        font-size: 32px;
      }

      .cls-3 {
        fill: #452f9f;
        font-family: MajorMonoDisplay-Regular, 'Major Mono Display';
        font-size: 100px;
      }
    </style>
  </defs>
  <g id="Layer_1">
    <text class="cls-1" transform="translate(4468.53 -534.52) rotate(-88.06)"><tspan x="0" y="0">G</tspan></text>
    <text class="cls-1" transform="translate(4468.91 -545.82) rotate(-84.88)"><tspan x="0" y="0">A</tspan></text>
    <text class="cls-1" transform="translate(4469.94 -557.34) rotate(-81.65)"><tspan x="0" y="0">R</tspan></text>
    <text class="cls-1" transform="translate(4471.63 -568.88) rotate(-78.39)"><tspan x="0" y="0">R</tspan></text>
    <text class="cls-1" transform="translate(4473.99 -580.28) rotate(-75.29)"><tspan x="0" y="0">E</tspan></text>
    <text class="cls-1" transform="translate(4476.66 -590.45) rotate(-72.35)"><tspan x="0" y="0">T</tspan></text>
    <text class="cls-1" transform="translate(4479.94 -600.74) rotate(-69.34)"><tspan x="0" y="0">T</tspan></text>
    <text class="cls-1" transform="translate(4483.74 -610.66) rotate(-67.2)"><tspan x="0" y="0"> </tspan></text>
    <text class="cls-1" transform="translate(4485.41 -614.98) rotate(-64.39)"><tspan x="0" y="0">M</tspan></text>
    <text class="cls-1" transform="translate(4492.16 -628.92) rotate(-60.65)"><tspan x="0" y="0">A</tspan></text>
    <text class="cls-1" transform="translate(4497.85 -639.05) rotate(-57.43)"><tspan x="0" y="0">R</tspan></text>
    <text class="cls-1" transform="translate(4504.09 -648.79) rotate(-54.39)"><tspan x="0" y="0">T</tspan></text>
    <text class="cls-1" transform="translate(4510.3 -657.37) rotate(-52.15)"><tspan x="0" y="0">I</tspan></text>
    <text class="cls-1" transform="translate(4513.69 -661.85) rotate(-49.67)"><tspan x="0" y="0">N</tspan></text>
    <text class="cls-1" transform="translate(4521.76 -671.24) rotate(-47.32)"><tspan x="0" y="0"> </tspan></text>
    <text class="cls-1" transform="translate(4524.89 -674.73) rotate(-45.04)"><tspan x="0" y="0">D</tspan></text>
    <text class="cls-1" transform="translate(4533.19 -683.03) rotate(-41.97)"><tspan x="0" y="0">E</tspan></text>
    <text class="cls-1" transform="translate(4541.03 -690.08) rotate(-39.02)"><tspan x="0" y="0">S</tspan></text>
    <text class="cls-1" transform="translate(4549.49 -696.87) rotate(-36.74)"><tspan x="0" y="0">I</tspan></text>
    <text class="cls-1" transform="translate(4553.94 -700.26) rotate(-34.39)"><tspan x="0" y="0">G</tspan></text>
    <text class="cls-1" transform="translate(4563.23 -706.64) rotate(-31.11)"><tspan x="0" y="0">N</tspan></text>
    <text class="cls-1" transform="translate(4573.89 -712.98) rotate(-28.73)"><tspan x="0" y="0"> </tspan></text>
    <text class="cls-1" transform="translate(4578.02 -715.28) rotate(-26.84)"><tspan x="0" y="0">•</tspan></text>
    <text class="cls-1" transform="translate(4585.86 -719.21) rotate(-24.96)"><tspan x="0" y="0"> </tspan></text>
    <text class="cls-1" transform="translate(4590.05 -721.24) rotate(-22.66)"><tspan x="0" y="0">D</tspan></text>
    <text class="cls-1" transform="translate(4600.89 -725.75) rotate(-19.55)"><tspan x="0" y="0">e</tspan></text>
    <text class="cls-1" transform="translate(4610.83 -729.28) rotate(-16.57)"><tspan x="0" y="0">s</tspan></text>
    <text class="cls-1" transform="translate(4621.22 -732.32) rotate(-14.28)"><tspan x="0" y="0">i</tspan></text>
    <text class="cls-1" transform="translate(4626.66 -733.76) rotate(-11.91)"><tspan x="0" y="0">g</tspan></text>
    <text class="cls-1" transform="translate(4637.67 -736.1) rotate(-8.66)"><tspan x="0" y="0">n</tspan></text>
    <text class="cls-1" transform="translate(4649.94 -737.9) rotate(-6.19)"><tspan x="0" y="0">i</tspan></text>
    <text class="cls-1" transform="translate(4655.49 -738.6) rotate(-3.48)"><tspan x="0" y="0">n</tspan></text>
    <text class="cls-1" transform="translate(4667.83 -739.36) rotate(-.5)"><tspan x="0" y="0">g</tspan></text>
    <text class="cls-1" transform="translate(4679.17 -739.4) rotate(1.7)"><tspan x="0" y="0"> </tspan></text>
    <text class="cls-1" transform="translate(4683.86 -739.31) rotate(3.83)"><tspan x="0" y="0">T</tspan></text>
    <text class="cls-1" transform="translate(4694.27 -738.63) rotate(6.87)"><tspan x="0" y="0">o</tspan></text>
    <text class="cls-1" transform="translate(4705.69 -737.33) rotate(10.64)"><tspan x="0" y="0">m</tspan></text>
    <text class="cls-1" transform="translate(4720.92 -734.4) rotate(14.42)"><tspan x="0" y="0">o</tspan></text>
    <text class="cls-1" transform="translate(4732.11 -731.53) rotate(17.66)"><tspan x="0" y="0">r</tspan></text>
    <text class="cls-1" transform="translate(4743.22 -727.99) rotate(20.91)"><tspan x="0" y="0">r</tspan></text>
    <text class="cls-1" transform="translate(4754.07 -723.85) rotate(24.13)"><tspan x="0" y="0">o</tspan></text>
    <text class="cls-1" transform="translate(4764.62 -719.21) rotate(27.96)"><tspan x="0" y="0">w</tspan></text>
    <text class="cls-1" transform="translate(4779.05 -711.38) rotate(31.03)"><tspan x="0" y="0">’</tspan></text>
    <text class="cls-1" transform="translate(4783.77 -708.6) rotate(33.28)"><tspan x="0" y="0">s</tspan></text>
    <text class="cls-1" transform="translate(4792.78 -702.61) rotate(35.42)"><tspan x="0" y="0"> </tspan></text>
    <text class="cls-1" transform="translate(4796.63 -699.94) rotate(37.53)"><tspan x="0" y="0">E</tspan></text>
    <text class="cls-1" transform="translate(4805.02 -693.51) rotate(40.61)"><tspan x="0" y="0">x</tspan></text>
    <text class="cls-1" transform="translate(4813.91 -685.89) rotate(43.76)"><tspan x="0" y="0">p</tspan></text>
    <text class="cls-1" transform="translate(4821.98 -678.15) rotate(46.75)"><tspan x="0" y="0">e</tspan></text>
    <text class="cls-1" transform="translate(4829.19 -670.5) rotate(49.82)"><tspan x="0" y="0">r</tspan></text>
    <text class="cls-1" transform="translate(4836.68 -661.54) rotate(52.2)"><tspan x="0" y="0">i</tspan></text>
    <text class="cls-1" transform="translate(4840.16 -657.13) rotate(54.45)"><tspan x="0" y="0">e</tspan></text>
    <text class="cls-1" transform="translate(4846.28 -648.61) rotate(57.62)"><tspan x="0" y="0">n</tspan></text>
    <text class="cls-1" transform="translate(4852.87 -638.19) rotate(60.88)"><tspan x="0" y="0">c</tspan></text>
    <text class="cls-1" transform="translate(4858.26 -628.49) rotate(63.89)"><tspan x="0" y="0">e</tspan></text>
    <text class="cls-1" transform="translate(4862.9 -619.04) rotate(66.87)"><tspan x="0" y="0">s</tspan></text>
    <text class="cls-1" transform="translate(4867.11 -609.04) rotate(69.04)"><tspan x="0" y="0"> </tspan></text>
    <text class="cls-1" transform="translate(4868.82 -604.67) rotate(70.93)"><tspan x="0" y="0">•</tspan></text>
    <text class="cls-1" transform="translate(4871.65 -596.35) rotate(72.81)"><tspan x="0" y="0"> </tspan></text>
    <text class="cls-1" transform="translate(4873.05 -591.83) rotate(74.14)"><tspan x="0" y="0"> </tspan></text>
    <text class="cls-1" transform="translate(4874.41 -587.32) rotate(76.44)"><tspan x="0" y="0">D</tspan></text>
    <text class="cls-1" transform="translate(4877.14 -575.92) rotate(79.52)"><tspan x="0" y="0">e</tspan></text>
    <text class="cls-1" transform="translate(4879.06 -565.55) rotate(82.46)"><tspan x="0" y="0">s</tspan></text>
    <text class="cls-1" transform="translate(4880.43 -554.79) rotate(84.66)"><tspan x="0" y="0">i</tspan></text>
    <text class="cls-1" transform="translate(4881 -549.24) rotate(87.02)"><tspan x="0" y="0">g</tspan></text>
    <text class="cls-1" transform="translate(4881.61 -537.97) rotate(90.26)"><tspan x="0" y="0">n</tspan></text>
    <text class="cls-1" transform="translate(4881.48 -525.57) rotate(92.74)"><tspan x="0" y="0">i</tspan></text>
    <text class="cls-1" transform="translate(4881.28 -519.98) rotate(95.24)"><tspan x="0" y="0">n</tspan></text>
    <text class="cls-1" transform="translate(4880.14 -507.68) rotate(98.54)"><tspan x="0" y="0">g</tspan></text>
    <text class="cls-1" transform="translate(4878.39 -496.48) rotate(100.78)"><tspan x="0" y="0"> </tspan></text>
    <text class="cls-1" transform="translate(4877.56 -491.83) rotate(102.92)"><tspan x="0" y="0">T</tspan></text>
    <text class="cls-1" transform="translate(4875.25 -481.69) rotate(105.98)"><tspan x="0" y="0">o</tspan></text>
    <text class="cls-1" transform="translate(4872.16 -470.62) rotate(109.74)"><tspan x="0" y="0">m</tspan></text>
    <text class="cls-1" transform="translate(4866.85 -456.02) rotate(113.52)"><tspan x="0" y="0">o</tspan></text>
    <text class="cls-1" transform="translate(4862.25 -445.44) rotate(116.73)"><tspan x="0" y="0">r</tspan></text>
    <text class="cls-1" transform="translate(4857.02 -435.05) rotate(119.95)"><tspan x="0" y="0">r</tspan></text>
    <text class="cls-1" transform="translate(4851.2 -424.96) rotate(123.16)"><tspan x="0" y="0">o</tspan></text>
    <text class="cls-1" transform="translate(4844.97 -415.28) rotate(126.97)"><tspan x="0" y="0">w</tspan></text>
    <text class="cls-1" transform="translate(4834.99 -402.28) rotate(130.01)"><tspan x="0" y="0">’</tspan></text>
    <text class="cls-1" transform="translate(4831.5 -398.03) rotate(132.27)"><tspan x="0" y="0">s</tspan></text>
    <text class="cls-1" transform="translate(4824.15 -390.04) rotate(134.41)"><tspan x="0" y="0"> </tspan></text>
    <text class="cls-1" transform="translate(4820.91 -386.65) rotate(136.52)"><tspan x="0" y="0">E</tspan></text>
    <text class="cls-1" transform="translate(4813.27 -379.38) rotate(139.6)"><tspan x="0" y="0">x</tspan></text>
    <text class="cls-1" transform="translate(4804.32 -371.78) rotate(142.77)"><tspan x="0" y="0">p</tspan></text>
    <text class="cls-1" transform="translate(4795.43 -365.03) rotate(145.78)"><tspan x="0" y="0">e</tspan></text>
    <text class="cls-1" transform="translate(4786.76 -359.11) rotate(148.86)"><tspan x="0" y="0">r</tspan></text>
    <text class="cls-1" transform="translate(4776.73 -353.13) rotate(151.26)"><tspan x="0" y="0">i</tspan></text>
    <text class="cls-1" transform="translate(4771.84 -350.39) rotate(153.52)"><tspan x="0" y="0">e</tspan></text>
    <text class="cls-1" transform="translate(4762.47 -345.69) rotate(156.71)"><tspan x="0" y="0">n</tspan></text>
    <text class="cls-1" transform="translate(4751.12 -340.83) rotate(159.98)"><tspan x="0" y="0">c</tspan></text>
    <text class="cls-1" transform="translate(4740.72 -337.04) rotate(162.99)"><tspan x="0" y="0">e</tspan></text>
    <text class="cls-1" transform="translate(4730.6 -333.94) rotate(165.98)"><tspan x="0" y="0">s</tspan></text>
    <text class="cls-1" transform="translate(4720.09 -331.38) rotate(168.13)"><tspan x="0" y="0"> </tspan></text>
    <text class="cls-1" transform="translate(4715.5 -330.38) rotate(169.99)"><tspan x="0" y="0">•</tspan></text>
    <text class="cls-1" transform="translate(4706.87 -328.89) rotate(171.85)"><tspan x="0" y="0"> </tspan></text>
    <text class="cls-1" transform="translate(4702.22 -328.16) rotate(174.12)"><tspan x="0" y="0">D</tspan></text>
    <text class="cls-1" transform="translate(4690.54 -326.97) rotate(177.14)"><tspan x="0" y="0">e</tspan></text>
    <text class="cls-1" transform="translate(4679.99 -326.44) rotate(-179.92)"><tspan x="0" y="0">s</tspan></text>
    <text class="cls-1" transform="translate(4669.16 -326.51) rotate(-177.65)"><tspan x="0" y="0">i</tspan></text>
    <text class="cls-1" transform="translate(4663.6 -326.68) rotate(-175.31)"><tspan x="0" y="0">g</tspan></text>
    <text class="cls-1" transform="translate(4652.31 -327.59) rotate(-172.01)"><tspan x="0" y="0">n</tspan></text>
    <text class="cls-1" transform="translate(4640.07 -329.38) rotate(-169.5)"><tspan x="0" y="0">i</tspan></text>
    <text class="cls-1" transform="translate(4634.57 -330.32) rotate(-166.99)"><tspan x="0" y="0">n</tspan></text>
    <text class="cls-1" transform="translate(4622.54 -333.12) rotate(-163.68)"><tspan x="0" y="0">g</tspan></text>
    <text class="cls-1" transform="translate(4611.64 -336.38) rotate(-161.44)"><tspan x="0" y="0"> </tspan></text>
    <text class="cls-1" transform="translate(4607.18 -337.82) rotate(-159.31)"><tspan x="0" y="0">T</tspan></text>
    <text class="cls-1" transform="translate(4597.45 -341.48) rotate(-156.27)"><tspan x="0" y="0">o</tspan></text>
    <text class="cls-1" transform="translate(4586.87 -346.05) rotate(-152.51)"><tspan x="0" y="0">m</tspan></text>
    <text class="cls-1" transform="translate(4573.17 -353.25) rotate(-148.78)"><tspan x="0" y="0">o</tspan></text>
    <text class="cls-1" transform="translate(4563.25 -359.26) rotate(-145.56)"><tspan x="0" y="0">r</tspan></text>
    <text class="cls-1" transform="translate(4553.67 -365.83) rotate(-142.36)"><tspan x="0" y="0">r</tspan></text>
    <text class="cls-1" transform="translate(4544.44 -372.95) rotate(-139.15)"><tspan x="0" y="0">o</tspan></text>
    <text class="cls-1" transform="translate(4535.68 -380.42) rotate(-135.35)"><tspan x="0" y="0">w</tspan></text>
    <text class="cls-1" transform="translate(4524.12 -392.04) rotate(-132.31)"><tspan x="0" y="0">’</tspan></text>
    <text class="cls-1" transform="translate(4520.4 -396.06) rotate(-130.05)"><tspan x="0" y="0">s</tspan></text>
    <text class="cls-1" transform="translate(4513.47 -404.39) rotate(-127.9)"><tspan x="0" y="0"> </tspan></text>
    <text class="cls-1" transform="translate(4510.53 -408.08) rotate(-125.78)"><tspan x="0" y="0">E</tspan></text>
    <text class="cls-1" transform="translate(4504.36 -416.61) rotate(-122.68)"><tspan x="0" y="0">x</tspan></text>
    <text class="cls-1" transform="translate(4498.02 -426.5) rotate(-119.49)"><tspan x="0" y="0">p</tspan></text>
    <text class="cls-1" transform="translate(4492.55 -436.19) rotate(-116.48)"><tspan x="0" y="0">e</tspan></text>
    <text class="cls-1" transform="translate(4487.85 -445.59) rotate(-113.38)"><tspan x="0" y="0">r</tspan></text>
    <text class="cls-1" transform="translate(4483.26 -456.36) rotate(-110.97)"><tspan x="0" y="0">i</tspan></text>
    <text class="cls-1" transform="translate(4481.21 -461.57) rotate(-108.71)"><tspan x="0" y="0">e</tspan></text>
    <text class="cls-1" transform="translate(4477.82 -471.51) rotate(-105.52)"><tspan x="0" y="0">n</tspan></text>
    <text class="cls-1" transform="translate(4474.54 -483.39) rotate(-102.26)"><tspan x="0" y="0">c</tspan></text>
    <text class="cls-1" transform="translate(4472.19 -494.24) rotate(-99.27)"><tspan x="0" y="0">e</tspan></text>
    <text class="cls-1" transform="translate(4470.49 -504.65) rotate(-96.34)"><tspan x="0" y="0">s</tspan></text>
    <text class="cls-1" transform="translate(4469.32 -515.36) rotate(-93.48)"><tspan x="0" y="0"> </tspan></text>
    <text class="cls-1" transform="translate(4468.97 -520.14) rotate(-92.38)"><tspan x="0" y="0">•</tspan></text>
    <text class="cls-1" transform="translate(4468.64 -528.89) rotate(-90.53)"><tspan x="0" y="0"> </tspan></text>
    <text class="cls-3" transform="translate(0 84.8)"><tspan x="0" y="0">GMD</tspan></text>
  </g>
  <g id="Layer_3">
    <text class="cls-2" transform="translate(3355.79 1612.1) rotate(-53.65)"><tspan x="0" y="0">G</tspan></text>
    <text class="cls-2" transform="translate(3363.17 1602.06) rotate(-50.15)"><tspan x="0" y="0">A</tspan></text>
    <text class="cls-2" transform="translate(3371.36 1592.24) rotate(-46.57)"><tspan x="0" y="0">R</tspan></text>
    <text class="cls-2" transform="translate(3380.2 1582.89) rotate(-42.97)"><tspan x="0" y="0">R</tspan></text>
    <text class="cls-2" transform="translate(3389.63 1574.14) rotate(-39.55)"><tspan x="0" y="0">E</tspan></text>
    <text class="cls-2" transform="translate(3398.57 1566.76) rotate(-36.31)"><tspan x="0" y="0">T</tspan></text>
    <text class="cls-2" transform="translate(3408.2 1559.69) rotate(-32.99)"><tspan x="0" y="0">T</tspan></text>
    <text class="cls-2" transform="translate(3418.07 1553.36) rotate(-30.63)"><tspan x="0" y="0"> </tspan></text>
    <text class="cls-2" transform="translate(3422.37 1550.62) rotate(-27.54)"><tspan x="0" y="0">M</tspan></text>
    <text class="cls-2" transform="translate(3437.61 1542.77) rotate(-23.4)"><tspan x="0" y="0">A</tspan></text>
    <text class="cls-2" transform="translate(3449.35 1537.68) rotate(-19.86)"><tspan x="0" y="0">R</tspan></text>
    <text class="cls-2" transform="translate(3461.38 1533.35) rotate(-16.51)"><tspan x="0" y="0">T</tspan></text>
    <text class="cls-2" transform="translate(3472.65 1530.08) rotate(-14.03)"><tspan x="0" y="0">I</tspan></text>
    <text class="cls-2" transform="translate(3478.6 1528.5) rotate(-11.3)"><tspan x="0" y="0">N</tspan></text>
    <text class="cls-2" transform="translate(3492.07 1525.91) rotate(-8.69)"><tspan x="0" y="0"> </tspan></text>
    <text class="cls-2" transform="translate(3497.18 1525.04) rotate(-6.17)"><tspan x="0" y="0">D</tspan></text>
    <text class="cls-2" transform="translate(3510.07 1523.67) rotate(-2.77)"><tspan x="0" y="0">E</tspan></text>
    <text class="cls-2" transform="translate(3521.71 1523.1) rotate(.5)"><tspan x="0" y="0">S</tspan></text>
    <text class="cls-2" transform="translate(3533.64 1523.27) rotate(3.02)"><tspan x="0" y="0">I</tspan></text>
    <text class="cls-2" transform="translate(3539.85 1523.53) rotate(5.64)"><tspan x="0" y="0">G</tspan></text>
    <text class="cls-2" transform="translate(3552.24 1524.73) rotate(9.28)"><tspan x="0" y="0">N</tspan></text>
    <text class="cls-2" transform="translate(3565.76 1527.04) rotate(11.92)"><tspan x="0" y="0"> </tspan></text>
    <text class="cls-2" transform="translate(3570.85 1528.07) rotate(14)"><tspan x="0" y="0">•</tspan></text>
    <text class="cls-2" transform="translate(3580.25 1530.46) rotate(16.08)"><tspan x="0" y="0"> </tspan></text>
    <text class="cls-2" transform="translate(3585.24 1531.81) rotate(18.62)"><tspan x="0" y="0">D</tspan></text>
    <text class="cls-2" transform="translate(3597.53 1535.97) rotate(22.04)"><tspan x="0" y="0">e</tspan></text>
    <text class="cls-2" transform="translate(3608.34 1540.35) rotate(25.31)"><tspan x="0" y="0">s</tspan></text>
    <text class="cls-2" transform="translate(3619.12 1545.52) rotate(27.8)"><tspan x="0" y="0">i</tspan></text>
    <text class="cls-2" transform="translate(3624.61 1548.28) rotate(30.77)"><tspan x="0" y="0">g</tspan></text>
    <text class="cls-2" transform="translate(3635.39 1554.62) rotate(33.92)"><tspan x="0" y="0">n</tspan></text>
    <text class="cls-2" transform="translate(3646.71 1562.34) rotate(36.67)"><tspan x="0" y="0">i</tspan></text>
    <text class="cls-2" transform="translate(3651.72 1565.96) rotate(39.43)"><tspan x="0" y="0">n</tspan></text>
    <text class="cls-2" transform="translate(3662.23 1574.62) rotate(43.06)"><tspan x="0" y="0">g</tspan></text>
    <text class="cls-2" transform="translate(3671.34 1583.25) rotate(45.54)"><tspan x="0" y="0"> </tspan></text>
    <text class="cls-2" transform="translate(3675.03 1586.91) rotate(47.9)"><tspan x="0" y="0">T</tspan></text>
    <text class="cls-2" transform="translate(3682.74 1595.41) rotate(51.27)"><tspan x="0" y="0">o</tspan></text>
    <text class="cls-2" transform="translate(3690.76 1605.28) rotate(55.44)"><tspan x="0" y="0">m</tspan></text>
    <text class="cls-2" transform="translate(3700.42 1619.43) rotate(59.59)"><tspan x="0" y="0">o</tspan></text>
    <text class="cls-2" transform="translate(3706.88 1630.43) rotate(63.14)"><tspan x="0" y="0">r</tspan></text>
    <text class="cls-2" transform="translate(3712.68 1641.9) rotate(66.7)"><tspan x="0" y="0">r</tspan></text>
    <text class="cls-2" transform="translate(3717.76 1653.69) rotate(70.23)"><tspan x="0" y="0">o</tspan></text>
    <text class="cls-2" transform="translate(3722.15 1665.62) rotate(74.42)"><tspan x="0" y="0">w</tspan></text>
    <text class="cls-2" transform="translate(3726.84 1683.1) rotate(77.79)"><tspan x="0" y="0">’</tspan></text>
    <text class="cls-2" transform="translate(3728.19 1689.03) rotate(80.28)"><tspan x="0" y="0">s</tspan></text>
    <text class="cls-2" transform="translate(3730.13 1700.82) rotate(82.64)"><tspan x="0" y="0"> </tspan></text>
    <text class="cls-2" transform="translate(3730.87 1705.99) rotate(84.98)"><tspan x="0" y="0">E</tspan></text>
    <text class="cls-2" transform="translate(3731.9 1717.57) rotate(88.39)"><tspan x="0" y="0">x</tspan></text>
    <text class="cls-2" transform="translate(3732.26 1730.52) rotate(91.9)"><tspan x="0" y="0">p</tspan></text>
    <text class="cls-2" transform="translate(3731.84 1742.85) rotate(95.24)"><tspan x="0" y="0">e</tspan></text>
    <text class="cls-2" transform="translate(3730.8 1754.39) rotate(98.65)"><tspan x="0" y="0">r</tspan></text>
    <text class="cls-2" transform="translate(3728.78 1767.16) rotate(101.32)"><tspan x="0" y="0">i</tspan></text>
    <text class="cls-2" transform="translate(3727.62 1773.25) rotate(103.82)"><tspan x="0" y="0">e</tspan></text>
    <text class="cls-2" transform="translate(3724.88 1784.52) rotate(107.34)"><tspan x="0" y="0">n</tspan></text>
    <text class="cls-2" transform="translate(3720.81 1797.49) rotate(110.94)"><tspan x="0" y="0">c</tspan></text>
    <text class="cls-2" transform="translate(3716.42 1808.93) rotate(114.24)"><tspan x="0" y="0">e</tspan></text>
    <text class="cls-2" transform="translate(3711.63 1819.57) rotate(117.49)"><tspan x="0" y="0">s</tspan></text>
    <text class="cls-2" transform="translate(3706.06 1830.05) rotate(118.91)"><tspan x="0" y="0"> </tspan></text>
    <text class="cls-2" transform="translate(3703.5 1834.68) rotate(121.86)"><tspan x="0" y="0">•</tspan></text>
    <text class="cls-2" transform="translate(3698.34 1842.9) rotate(123.91)"><tspan x="0" y="0"> </tspan></text>
    <text class="cls-2" transform="translate(3695.5 1847.25) rotate(126.36)"><tspan x="0" y="0">G</tspan></text>
    <text class="cls-2" transform="translate(3688.12 1857.29) rotate(129.87)"><tspan x="0" y="0">A</tspan></text>
    <text class="cls-2" transform="translate(3679.93 1867.11) rotate(133.44)"><tspan x="0" y="0">R</tspan></text>
    <text class="cls-2" transform="translate(3671.11 1876.43) rotate(137.03)"><tspan x="0" y="0">R</tspan></text>
    <text class="cls-2" transform="translate(3661.65 1885.21) rotate(140.46)"><tspan x="0" y="0">E</tspan></text>
    <text class="cls-2" transform="translate(3652.71 1892.59) rotate(143.7)"><tspan x="0" y="0">T</tspan></text>
    <text class="cls-2" transform="translate(3643.08 1899.65) rotate(147.03)"><tspan x="0" y="0">T</tspan></text>
    <text class="cls-2" transform="translate(3633.24 1905.96) rotate(149.37)"><tspan x="0" y="0"> </tspan></text>
    <text class="cls-2" transform="translate(3628.91 1908.71) rotate(152.47)"><tspan x="0" y="0">M</tspan></text>
    <text class="cls-2" transform="translate(3613.67 1916.57) rotate(156.61)"><tspan x="0" y="0">A</tspan></text>
    <text class="cls-2" transform="translate(3601.96 1921.64) rotate(160.14)"><tspan x="0" y="0">R</tspan></text>
    <text class="cls-2" transform="translate(3589.89 1925.98) rotate(163.51)"><tspan x="0" y="0">T</tspan></text>
    <text class="cls-2" transform="translate(3578.66 1929.24) rotate(165.97)"><tspan x="0" y="0">I</tspan></text>
    <text class="cls-2" transform="translate(3572.68 1930.83) rotate(168.71)"><tspan x="0" y="0">N</tspan></text>
    <text class="cls-2" transform="translate(3559.24 1933.41) rotate(171.31)"><tspan x="0" y="0"> </tspan></text>
    <text class="cls-2" transform="translate(3554.13 1934.28) rotate(173.83)"><tspan x="0" y="0">D</tspan></text>
    <text class="cls-2" transform="translate(3541.25 1935.65) rotate(177.23)"><tspan x="0" y="0">E</tspan></text>
    <text class="cls-2" transform="translate(3529.6 1936.22) rotate(-179.5)"><tspan x="0" y="0">S</tspan></text>
    <text class="cls-2" transform="translate(3517.63 1936.05) rotate(-176.97)"><tspan x="0" y="0">I</tspan></text>
    <text class="cls-2" transform="translate(3511.46 1935.79) rotate(-174.36)"><tspan x="0" y="0">G</tspan></text>
    <text class="cls-2" transform="translate(3499.03 1934.58) rotate(-170.71)"><tspan x="0" y="0">N</tspan></text>
    <text class="cls-2" transform="translate(3485.55 1932.28) rotate(-168.08)"><tspan x="0" y="0"> </tspan></text>
    <text class="cls-2" transform="translate(3480.43 1931.24) rotate(-165.99)"><tspan x="0" y="0">•</tspan></text>
    <text class="cls-2" transform="translate(3471.03 1928.85) rotate(-163.91)"><tspan x="0" y="0"> </tspan></text>
    <text class="cls-2" transform="translate(3466.04 1927.5) rotate(-161.37)"><tspan x="0" y="0">D</tspan></text>
    <text class="cls-2" transform="translate(3453.78 1923.34) rotate(-157.96)"><tspan x="0" y="0">e</tspan></text>
    <text class="cls-2" transform="translate(3442.97 1918.97) rotate(-154.69)"><tspan x="0" y="0">s</tspan></text>
    <text class="cls-2" transform="translate(3432.2 1913.8) rotate(-152.2)"><tspan x="0" y="0">i</tspan></text>
    <text class="cls-2" transform="translate(3426.67 1911.02) rotate(-149.23)"><tspan x="0" y="0">g</tspan></text>
    <text class="cls-2" transform="translate(3415.89 1904.68) rotate(-146.07)"><tspan x="0" y="0">n</tspan></text>
    <text class="cls-2" transform="translate(3404.6 1896.98) rotate(-143.33)"><tspan x="0" y="0">i</tspan></text>
    <text class="cls-2" transform="translate(3399.59 1893.36) rotate(-140.57)"><tspan x="0" y="0">n</tspan></text>
    <text class="cls-2" transform="translate(3389.09 1884.7) rotate(-136.94)"><tspan x="0" y="0">g</tspan></text>
    <text class="cls-2" transform="translate(3379.94 1876.04) rotate(-134.45)"><tspan x="0" y="0"> </tspan></text>
    <text class="cls-2" transform="translate(3376.28 1872.4) rotate(-132.1)"><tspan x="0" y="0">T</tspan></text>
    <text class="cls-2" transform="translate(3368.55 1863.88) rotate(-128.72)"><tspan x="0" y="0">o</tspan></text>
    <text class="cls-2" transform="translate(3360.53 1854) rotate(-124.55)"><tspan x="0" y="0">m</tspan></text>
    <text class="cls-2" transform="translate(3350.9 1839.89) rotate(-120.41)"><tspan x="0" y="0">o</tspan></text>
    <text class="cls-2" transform="translate(3344.44 1828.88) rotate(-116.86)"><tspan x="0" y="0">r</tspan></text>
    <text class="cls-2" transform="translate(3338.63 1817.42) rotate(-113.31)"><tspan x="0" y="0">r</tspan></text>
    <text class="cls-2" transform="translate(3333.53 1805.59) rotate(-109.76)"><tspan x="0" y="0">o</tspan></text>
    <text class="cls-2" transform="translate(3329.16 1793.7) rotate(-105.58)"><tspan x="0" y="0">w</tspan></text>
    <text class="cls-2" transform="translate(3324.47 1776.18) rotate(-102.2)"><tspan x="0" y="0">’</tspan></text>
    <text class="cls-2" transform="translate(3323.12 1770.25) rotate(-99.71)"><tspan x="0" y="0">s</tspan></text>
    <text class="cls-2" transform="translate(3321.17 1758.46) rotate(-97.35)"><tspan x="0" y="0"> </tspan></text>
    <text class="cls-2" transform="translate(3320.45 1753.33) rotate(-95.02)"><tspan x="0" y="0">E</tspan></text>
    <text class="cls-2" transform="translate(3319.41 1741.71) rotate(-91.59)"><tspan x="0" y="0">x</tspan></text>
    <text class="cls-2" transform="translate(3319.05 1728.76) rotate(-88.09)"><tspan x="0" y="0">p</tspan></text>
    <text class="cls-2" transform="translate(3319.48 1716.43) rotate(-84.75)"><tspan x="0" y="0">e</tspan></text>
    <text class="cls-2" transform="translate(3320.51 1704.89) rotate(-81.34)"><tspan x="0" y="0">r</tspan></text>
    <text class="cls-2" transform="translate(3322.54 1692.12) rotate(-78.67)"><tspan x="0" y="0">i</tspan></text>
    <text class="cls-2" transform="translate(3323.7 1686.03) rotate(-76.17)"><tspan x="0" y="0">e</tspan></text>
    <text class="cls-2" transform="translate(3326.43 1674.8) rotate(-72.66)"><tspan x="0" y="0">n</tspan></text>
    <text class="cls-2" transform="translate(3330.52 1661.79) rotate(-69.05)"><tspan x="0" y="0">c</tspan></text>
    <text class="cls-2" transform="translate(3334.89 1650.39) rotate(-65.76)"><tspan x="0" y="0">e</tspan></text>
    <text class="cls-2" transform="translate(3339.68 1639.75) rotate(-62.51)"><tspan x="0" y="0">s</tspan></text>
    <text class="cls-2" transform="translate(3345.27 1629.24) rotate(-61.09)"><tspan x="0" y="0"> </tspan></text>
    <text class="cls-2" transform="translate(3347.84 1624.61) rotate(-58.13)"><tspan x="0" y="0">•</tspan></text>
    <text class="cls-2" transform="translate(3353 1616.38) rotate(-56.08)"><tspan x="0" y="0"> </tspan></text>
  </g>
</svg>