<?xml version="1.0" encoding="UTF-8"?>
<svg xmlns="http://www.w3.org/2000/svg" viewBox="0 0 131.3 72.6">
  <defs>
    <style>
      .cls-1 {
        fill: #452f9f;
      }

      .cls-2 {
        font-size: 29px;
      }

      .cls-2, .cls-3 {
        fill: #32465c;
        font-family: BebasNeue-Regular, 'Bebas Neue';
      }

      .cls-3 {
        font-size: 32px;
      }
    </style>
  </defs>
  <g id="Layer_1">
    <text class="cls-2" transform="translate(4292.03 -368.61) rotate(-88.06)"><tspan x="0" y="0">G</tspan></text>
    <text class="cls-2" transform="translate(4292.41 -379.91) rotate(-84.88)"><tspan x="0" y="0">A</tspan></text>
    <text class="cls-2" transform="translate(4293.44 -391.43) rotate(-81.65)"><tspan x="0" y="0">R</tspan></text>
    <text class="cls-2" transform="translate(4295.13 -402.96) rotate(-78.39)"><tspan x="0" y="0">R</tspan></text>
    <text class="cls-2" transform="translate(4297.49 -414.37) rotate(-75.29)"><tspan x="0" y="0">E</tspan></text>
    <text class="cls-2" transform="translate(4300.16 -424.54) rotate(-72.35)"><tspan x="0" y="0">T</tspan></text>
    <text class="cls-2" transform="translate(4303.44 -434.83) rotate(-69.34)"><tspan x="0" y="0">T</tspan></text>
    <text class="cls-2" transform="translate(4307.24 -444.75) rotate(-67.2)"><tspan x="0" y="0"> </tspan></text>
    <text class="cls-2" transform="translate(4308.91 -449.07) rotate(-64.39)"><tspan x="0" y="0">M</tspan></text>
    <text class="cls-2" transform="translate(4315.66 -463.01) rotate(-60.65)"><tspan x="0" y="0">A</tspan></text>
    <text class="cls-2" transform="translate(4321.35 -473.14) rotate(-57.43)"><tspan x="0" y="0">R</tspan></text>
    <text class="cls-2" transform="translate(4327.59 -482.88) rotate(-54.39)"><tspan x="0" y="0">T</tspan></text>
    <text class="cls-2" transform="translate(4333.79 -491.46) rotate(-52.15)"><tspan x="0" y="0">I</tspan></text>
    <text class="cls-2" transform="translate(4337.18 -495.94) rotate(-49.67)"><tspan x="0" y="0">N</tspan></text>
    <text class="cls-2" transform="translate(4345.26 -505.33) rotate(-47.32)"><tspan x="0" y="0"> </tspan></text>
    <text class="cls-2" transform="translate(4348.38 -508.82) rotate(-45.04)"><tspan x="0" y="0">D</tspan></text>
    <text class="cls-2" transform="translate(4356.69 -517.12) rotate(-41.97)"><tspan x="0" y="0">E</tspan></text>
    <text class="cls-2" transform="translate(4364.52 -524.17) rotate(-39.02)"><tspan x="0" y="0">S</tspan></text>
    <text class="cls-2" transform="translate(4372.98 -530.95) rotate(-36.74)"><tspan x="0" y="0">I</tspan></text>
    <text class="cls-2" transform="translate(4377.44 -534.35) rotate(-34.39)"><tspan x="0" y="0">G</tspan></text>
    <text class="cls-2" transform="translate(4386.73 -540.73) rotate(-31.11)"><tspan x="0" y="0">N</tspan></text>
    <text class="cls-2" transform="translate(4397.39 -547.07) rotate(-28.73)"><tspan x="0" y="0"> </tspan></text>
    <text class="cls-2" transform="translate(4401.52 -549.37) rotate(-26.84)"><tspan x="0" y="0">•</tspan></text>
    <text class="cls-2" transform="translate(4409.35 -553.3) rotate(-24.96)"><tspan x="0" y="0"> </tspan></text>
    <text class="cls-2" transform="translate(4413.54 -555.33) rotate(-22.66)"><tspan x="0" y="0">D</tspan></text>
    <text class="cls-2" transform="translate(4424.39 -559.84) rotate(-19.55)"><tspan x="0" y="0">e</tspan></text>
    <text class="cls-2" transform="translate(4434.33 -563.37) rotate(-16.57)"><tspan x="0" y="0">s</tspan></text>
    <text class="cls-2" transform="translate(4444.72 -566.41) rotate(-14.28)"><tspan x="0" y="0">i</tspan></text>
    <text class="cls-2" transform="translate(4450.15 -567.85) rotate(-11.91)"><tspan x="0" y="0">g</tspan></text>
    <text class="cls-2" transform="translate(4461.16 -570.19) rotate(-8.66)"><tspan x="0" y="0">n</tspan></text>
    <text class="cls-2" transform="translate(4473.44 -571.99) rotate(-6.19)"><tspan x="0" y="0">i</tspan></text>
    <text class="cls-2" transform="translate(4478.98 -572.69) rotate(-3.48)"><tspan x="0" y="0">n</tspan></text>
    <text class="cls-2" transform="translate(4491.32 -573.45) rotate(-.5)"><tspan x="0" y="0">g</tspan></text>
    <text class="cls-2" transform="translate(4502.66 -573.49) rotate(1.7)"><tspan x="0" y="0"> </tspan></text>
    <text class="cls-2" transform="translate(4507.36 -573.4) rotate(3.83)"><tspan x="0" y="0">T</tspan></text>
    <text class="cls-2" transform="translate(4517.77 -572.72) rotate(6.87)"><tspan x="0" y="0">o</tspan></text>
    <text class="cls-2" transform="translate(4529.19 -571.42) rotate(10.64)"><tspan x="0" y="0">m</tspan></text>
    <text class="cls-2" transform="translate(4544.41 -568.49) rotate(14.42)"><tspan x="0" y="0">o</tspan></text>
    <text class="cls-2" transform="translate(4555.61 -565.62) rotate(17.66)"><tspan x="0" y="0">r</tspan></text>
    <text class="cls-2" transform="translate(4566.72 -562.08) rotate(20.91)"><tspan x="0" y="0">r</tspan></text>
    <text class="cls-2" transform="translate(4577.57 -557.93) rotate(24.13)"><tspan x="0" y="0">o</tspan></text>
    <text class="cls-2" transform="translate(4588.11 -553.3) rotate(27.96)"><tspan x="0" y="0">w</tspan></text>
    <text class="cls-2" transform="translate(4602.54 -545.47) rotate(31.03)"><tspan x="0" y="0">’</tspan></text>
    <text class="cls-2" transform="translate(4607.26 -542.69) rotate(33.28)"><tspan x="0" y="0">s</tspan></text>
    <text class="cls-2" transform="translate(4616.28 -536.7) rotate(35.42)"><tspan x="0" y="0"> </tspan></text>
    <text class="cls-2" transform="translate(4620.13 -534.03) rotate(37.53)"><tspan x="0" y="0">E</tspan></text>
    <text class="cls-2" transform="translate(4628.52 -527.6) rotate(40.61)"><tspan x="0" y="0">x</tspan></text>
    <text class="cls-2" transform="translate(4637.41 -519.98) rotate(43.76)"><tspan x="0" y="0">p</tspan></text>
    <text class="cls-2" transform="translate(4645.47 -512.24) rotate(46.75)"><tspan x="0" y="0">e</tspan></text>
    <text class="cls-2" transform="translate(4652.69 -504.59) rotate(49.82)"><tspan x="0" y="0">r</tspan></text>
    <text class="cls-2" transform="translate(4660.18 -495.63) rotate(52.2)"><tspan x="0" y="0">i</tspan></text>
    <text class="cls-2" transform="translate(4663.65 -491.22) rotate(54.45)"><tspan x="0" y="0">e</tspan></text>
    <text class="cls-2" transform="translate(4669.78 -482.7) rotate(57.62)"><tspan x="0" y="0">n</tspan></text>
    <text class="cls-2" transform="translate(4676.37 -472.27) rotate(60.88)"><tspan x="0" y="0">c</tspan></text>
    <text class="cls-2" transform="translate(4681.76 -462.58) rotate(63.89)"><tspan x="0" y="0">e</tspan></text>
    <text class="cls-2" transform="translate(4686.39 -453.13) rotate(66.87)"><tspan x="0" y="0">s</tspan></text>
    <text class="cls-2" transform="translate(4690.6 -443.13) rotate(69.04)"><tspan x="0" y="0"> </tspan></text>
    <text class="cls-2" transform="translate(4692.31 -438.76) rotate(70.93)"><tspan x="0" y="0">•</tspan></text>
    <text class="cls-2" transform="translate(4695.15 -430.44) rotate(72.81)"><tspan x="0" y="0"> </tspan></text>
    <text class="cls-2" transform="translate(4696.55 -425.91) rotate(74.14)"><tspan x="0" y="0"> </tspan></text>
    <text class="cls-2" transform="translate(4697.9 -421.41) rotate(76.44)"><tspan x="0" y="0">D</tspan></text>
    <text class="cls-2" transform="translate(4700.63 -410.01) rotate(79.52)"><tspan x="0" y="0">e</tspan></text>
    <text class="cls-2" transform="translate(4702.56 -399.64) rotate(82.46)"><tspan x="0" y="0">s</tspan></text>
    <text class="cls-2" transform="translate(4703.92 -388.88) rotate(84.66)"><tspan x="0" y="0">i</tspan></text>
    <text class="cls-2" transform="translate(4704.5 -383.33) rotate(87.02)"><tspan x="0" y="0">g</tspan></text>
    <text class="cls-2" transform="translate(4705.1 -372.06) rotate(90.26)"><tspan x="0" y="0">n</tspan></text>
    <text class="cls-2" transform="translate(4704.97 -359.66) rotate(92.74)"><tspan x="0" y="0">i</tspan></text>
    <text class="cls-2" transform="translate(4704.78 -354.07) rotate(95.24)"><tspan x="0" y="0">n</tspan></text>
    <text class="cls-2" transform="translate(4703.64 -341.77) rotate(98.54)"><tspan x="0" y="0">g</tspan></text>
    <text class="cls-2" transform="translate(4701.89 -330.57) rotate(100.78)"><tspan x="0" y="0"> </tspan></text>
    <text class="cls-2" transform="translate(4701.06 -325.92) rotate(102.92)"><tspan x="0" y="0">T</tspan></text>
    <text class="cls-2" transform="translate(4698.75 -315.78) rotate(105.98)"><tspan x="0" y="0">o</tspan></text>
    <text class="cls-2" transform="translate(4695.65 -304.71) rotate(109.74)"><tspan x="0" y="0">m</tspan></text>
    <text class="cls-2" transform="translate(4690.34 -290.11) rotate(113.52)"><tspan x="0" y="0">o</tspan></text>
    <text class="cls-2" transform="translate(4685.74 -279.53) rotate(116.73)"><tspan x="0" y="0">r</tspan></text>
    <text class="cls-2" transform="translate(4680.51 -269.14) rotate(119.95)"><tspan x="0" y="0">r</tspan></text>
    <text class="cls-2" transform="translate(4674.7 -259.05) rotate(123.16)"><tspan x="0" y="0">o</tspan></text>
    <text class="cls-2" transform="translate(4668.46 -249.36) rotate(126.97)"><tspan x="0" y="0">w</tspan></text>
    <text class="cls-2" transform="translate(4658.49 -236.37) rotate(130.01)"><tspan x="0" y="0">’</tspan></text>
    <text class="cls-2" transform="translate(4654.99 -232.12) rotate(132.27)"><tspan x="0" y="0">s</tspan></text>
    <text class="cls-2" transform="translate(4647.65 -224.13) rotate(134.41)"><tspan x="0" y="0"> </tspan></text>
    <text class="cls-2" transform="translate(4644.41 -220.74) rotate(136.52)"><tspan x="0" y="0">E</tspan></text>
    <text class="cls-2" transform="translate(4636.77 -213.47) rotate(139.6)"><tspan x="0" y="0">x</tspan></text>
    <text class="cls-2" transform="translate(4627.82 -205.86) rotate(142.77)"><tspan x="0" y="0">p</tspan></text>
    <text class="cls-2" transform="translate(4618.93 -199.12) rotate(145.78)"><tspan x="0" y="0">e</tspan></text>
    <text class="cls-2" transform="translate(4610.25 -193.2) rotate(148.86)"><tspan x="0" y="0">r</tspan></text>
    <text class="cls-2" transform="translate(4600.23 -187.22) rotate(151.26)"><tspan x="0" y="0">i</tspan></text>
    <text class="cls-2" transform="translate(4595.33 -184.48) rotate(153.52)"><tspan x="0" y="0">e</tspan></text>
    <text class="cls-2" transform="translate(4585.97 -179.78) rotate(156.71)"><tspan x="0" y="0">n</tspan></text>
    <text class="cls-2" transform="translate(4574.62 -174.92) rotate(159.98)"><tspan x="0" y="0">c</tspan></text>
    <text class="cls-2" transform="translate(4564.21 -171.13) rotate(162.99)"><tspan x="0" y="0">e</tspan></text>
    <text class="cls-2" transform="translate(4554.1 -168.03) rotate(165.98)"><tspan x="0" y="0">s</tspan></text>
    <text class="cls-2" transform="translate(4543.59 -165.47) rotate(168.13)"><tspan x="0" y="0"> </tspan></text>
    <text class="cls-2" transform="translate(4539 -164.47) rotate(169.99)"><tspan x="0" y="0">•</tspan></text>
    <text class="cls-2" transform="translate(4530.36 -162.98) rotate(171.85)"><tspan x="0" y="0"> </tspan></text>
    <text class="cls-2" transform="translate(4525.72 -162.25) rotate(174.12)"><tspan x="0" y="0">D</tspan></text>
    <text class="cls-2" transform="translate(4514.03 -161.06) rotate(177.14)"><tspan x="0" y="0">e</tspan></text>
    <text class="cls-2" transform="translate(4503.48 -160.53) rotate(-179.92)"><tspan x="0" y="0">s</tspan></text>
    <text class="cls-2" transform="translate(4492.65 -160.6) rotate(-177.65)"><tspan x="0" y="0">i</tspan></text>
    <text class="cls-2" transform="translate(4487.09 -160.77) rotate(-175.31)"><tspan x="0" y="0">g</tspan></text>
    <text class="cls-2" transform="translate(4475.8 -161.68) rotate(-172.01)"><tspan x="0" y="0">n</tspan></text>
    <text class="cls-2" transform="translate(4463.57 -163.47) rotate(-169.5)"><tspan x="0" y="0">i</tspan></text>
    <text class="cls-2" transform="translate(4458.07 -164.41) rotate(-166.99)"><tspan x="0" y="0">n</tspan></text>
    <text class="cls-2" transform="translate(4446.04 -167.21) rotate(-163.68)"><tspan x="0" y="0">g</tspan></text>
    <text class="cls-2" transform="translate(4435.14 -170.47) rotate(-161.44)"><tspan x="0" y="0"> </tspan></text>
    <text class="cls-2" transform="translate(4430.67 -171.91) rotate(-159.31)"><tspan x="0" y="0">T</tspan></text>
    <text class="cls-2" transform="translate(4420.95 -175.56) rotate(-156.27)"><tspan x="0" y="0">o</tspan></text>
    <text class="cls-2" transform="translate(4410.37 -180.14) rotate(-152.51)"><tspan x="0" y="0">m</tspan></text>
    <text class="cls-2" transform="translate(4396.66 -187.34) rotate(-148.78)"><tspan x="0" y="0">o</tspan></text>
    <text class="cls-2" transform="translate(4386.75 -193.35) rotate(-145.56)"><tspan x="0" y="0">r</tspan></text>
    <text class="cls-2" transform="translate(4377.16 -199.92) rotate(-142.36)"><tspan x="0" y="0">r</tspan></text>
    <text class="cls-2" transform="translate(4367.93 -207.04) rotate(-139.15)"><tspan x="0" y="0">o</tspan></text>
    <text class="cls-2" transform="translate(4359.17 -214.51) rotate(-135.35)"><tspan x="0" y="0">w</tspan></text>
    <text class="cls-2" transform="translate(4347.62 -226.13) rotate(-132.31)"><tspan x="0" y="0">’</tspan></text>
    <text class="cls-2" transform="translate(4343.89 -230.15) rotate(-130.05)"><tspan x="0" y="0">s</tspan></text>
    <text class="cls-2" transform="translate(4336.96 -238.48) rotate(-127.9)"><tspan x="0" y="0"> </tspan></text>
    <text class="cls-2" transform="translate(4334.02 -242.17) rotate(-125.78)"><tspan x="0" y="0">E</tspan></text>
    <text class="cls-2" transform="translate(4327.85 -250.7) rotate(-122.68)"><tspan x="0" y="0">x</tspan></text>
    <text class="cls-2" transform="translate(4321.52 -260.59) rotate(-119.49)"><tspan x="0" y="0">p</tspan></text>
    <text class="cls-2" transform="translate(4316.04 -270.28) rotate(-116.48)"><tspan x="0" y="0">e</tspan></text>
    <text class="cls-2" transform="translate(4311.34 -279.68) rotate(-113.38)"><tspan x="0" y="0">r</tspan></text>
    <text class="cls-2" transform="translate(4306.76 -290.44) rotate(-110.97)"><tspan x="0" y="0">i</tspan></text>
    <text class="cls-2" transform="translate(4304.71 -295.66) rotate(-108.71)"><tspan x="0" y="0">e</tspan></text>
    <text class="cls-2" transform="translate(4301.32 -305.6) rotate(-105.52)"><tspan x="0" y="0">n</tspan></text>
    <text class="cls-2" transform="translate(4298.03 -317.48) rotate(-102.26)"><tspan x="0" y="0">c</tspan></text>
    <text class="cls-2" transform="translate(4295.68 -328.33) rotate(-99.27)"><tspan x="0" y="0">e</tspan></text>
    <text class="cls-2" transform="translate(4293.98 -338.74) rotate(-96.34)"><tspan x="0" y="0">s</tspan></text>
    <text class="cls-2" transform="translate(4292.82 -349.45) rotate(-93.48)"><tspan x="0" y="0"> </tspan></text>
    <text class="cls-2" transform="translate(4292.46 -354.23) rotate(-92.38)"><tspan x="0" y="0">•</tspan></text>
    <text class="cls-2" transform="translate(4292.13 -362.98) rotate(-90.53)"><tspan x="0" y="0"> </tspan></text>
    <g>
      <path class="cls-1" d="M16.25,7.05c-3.83,2.23-6.88,5.27-9.15,9.1-2.27,3.83-3.4,8.02-3.4,12.55v13.2c0,4.73.67,8.63,2,11.7,1.87,4.33,4.7,7.87,8.5,10.6,3.23,2.33,6.8,3.78,10.71,4.37,1.1.17,2.09-.69,2.09-1.81v-28.64c0-1,.81-1.82,1.82-1.82h26.86c1,0,1.82.81,1.82,1.82v4.78c0,4.27-.63,8.07-1.9,11.4-2.07,5.53-5.54,9.97-10.4,13.3-4.87,3.33-10.37,5-16.5,5-5.8,0-11.08-1.58-15.85-4.75-4.77-3.17-8.25-7.38-10.45-12.65-1.6-3.73-2.4-8.17-2.4-13.3v-13.2c0-5.2,1.28-10,3.85-14.4,2.57-4.4,6.05-7.88,10.45-10.45C18.7,1.28,23.5,0,28.7,0c4.33,0,8.3.72,11.9,2.15,3.6,1.43,6.67,3.52,9.2,6.25,2.07,2.27,3.75,4.8,5.05,7.6,1,2.15,1.61,4.32,1.84,6.5.11,1.07-.74,2-1.82,2h0c-.92,0-1.68-.68-1.8-1.6-.24-1.92-.82-3.82-1.73-5.7-1.17-2.4-2.65-4.57-4.45-6.5-4.47-4.67-10.53-7-18.2-7-4.47,0-8.62,1.12-12.45,3.35ZM51.98,39.9h-19.56c-1,0-1.82.81-1.82,1.82v25.05c0,1.11.99,1.97,2.09,1.81,3.97-.58,7.59-2.02,10.86-4.33,3.83-2.7,6.65-6.28,8.45-10.75,1.2-3.13,1.8-6.67,1.8-10.6v-1.18c0-1-.81-1.82-1.82-1.82Z"/>
      <path class="cls-1" d="M76.92,1.4h1.12c.66,0,1.26.35,1.58.92l22.19,39.27c.7,1.23,2.47,1.23,3.17,0L127.08,2.33c.32-.57.93-.93,1.58-.93h.82c1,0,1.82.81,1.82,1.82v65.96c0,1-.81,1.82-1.82,1.82h-52.56c-1,0-1.82-.81-1.82-1.82V3.22c0-1,.81-1.82,1.82-1.82ZM80.62,67.4h45.16c1,0,1.82-.81,1.82-1.82V15.78c0-1.87-2.48-2.52-3.4-.9l-18.58,32.7c-.32.57-.93.92-1.58.92h-1.38c-.65,0-1.26-.35-1.58-.92l-18.88-33.28c-.92-1.62-3.4-.97-3.4.9v50.39c0,1,.81,1.82,1.82,1.82Z"/>
    </g>
  </g>
  <g id="Layer_3">
    <text class="cls-3" transform="translate(3179.28 1778.01) rotate(-53.65)"><tspan x="0" y="0">G</tspan></text>
    <text class="cls-3" transform="translate(3186.66 1767.97) rotate(-50.15)"><tspan x="0" y="0">A</tspan></text>
    <text class="cls-3" transform="translate(3194.85 1758.15) rotate(-46.57)"><tspan x="0" y="0">R</tspan></text>
    <text class="cls-3" transform="translate(3203.7 1748.8) rotate(-42.97)"><tspan x="0" y="0">R</tspan></text>
    <text class="cls-3" transform="translate(3213.13 1740.05) rotate(-39.55)"><tspan x="0" y="0">E</tspan></text>
    <text class="cls-3" transform="translate(3222.06 1732.67) rotate(-36.31)"><tspan x="0" y="0">T</tspan></text>
    <text class="cls-3" transform="translate(3231.69 1725.6) rotate(-32.99)"><tspan x="0" y="0">T</tspan></text>
    <text class="cls-3" transform="translate(3241.57 1719.27) rotate(-30.63)"><tspan x="0" y="0"> </tspan></text>
    <text class="cls-3" transform="translate(3245.87 1716.54) rotate(-27.54)"><tspan x="0" y="0">M</tspan></text>
    <text class="cls-3" transform="translate(3261.1 1708.68) rotate(-23.4)"><tspan x="0" y="0">A</tspan></text>
    <text class="cls-3" transform="translate(3272.85 1703.59) rotate(-19.86)"><tspan x="0" y="0">R</tspan></text>
    <text class="cls-3" transform="translate(3284.88 1699.26) rotate(-16.51)"><tspan x="0" y="0">T</tspan></text>
    <text class="cls-3" transform="translate(3296.14 1695.99) rotate(-14.03)"><tspan x="0" y="0">I</tspan></text>
    <text class="cls-3" transform="translate(3302.09 1694.41) rotate(-11.3)"><tspan x="0" y="0">N</tspan></text>
    <text class="cls-3" transform="translate(3315.57 1691.82) rotate(-8.69)"><tspan x="0" y="0"> </tspan></text>
    <text class="cls-3" transform="translate(3320.67 1690.95) rotate(-6.17)"><tspan x="0" y="0">D</tspan></text>
    <text class="cls-3" transform="translate(3333.56 1689.58) rotate(-2.77)"><tspan x="0" y="0">E</tspan></text>
    <text class="cls-3" transform="translate(3345.2 1689.01) rotate(.5)"><tspan x="0" y="0">S</tspan></text>
    <text class="cls-3" transform="translate(3357.14 1689.18) rotate(3.02)"><tspan x="0" y="0">I</tspan></text>
    <text class="cls-3" transform="translate(3363.35 1689.44) rotate(5.64)"><tspan x="0" y="0">G</tspan></text>
    <text class="cls-3" transform="translate(3375.73 1690.64) rotate(9.28)"><tspan x="0" y="0">N</tspan></text>
    <text class="cls-3" transform="translate(3389.26 1692.95) rotate(11.92)"><tspan x="0" y="0"> </tspan></text>
    <text class="cls-3" transform="translate(3394.34 1693.99) rotate(14)"><tspan x="0" y="0">•</tspan></text>
    <text class="cls-3" transform="translate(3403.74 1696.37) rotate(16.08)"><tspan x="0" y="0"> </tspan></text>
    <text class="cls-3" transform="translate(3408.73 1697.72) rotate(18.62)"><tspan x="0" y="0">D</tspan></text>
    <text class="cls-3" transform="translate(3421.03 1701.89) rotate(22.04)"><tspan x="0" y="0">e</tspan></text>
    <text class="cls-3" transform="translate(3431.83 1706.26) rotate(25.31)"><tspan x="0" y="0">s</tspan></text>
    <text class="cls-3" transform="translate(3442.61 1711.43) rotate(27.8)"><tspan x="0" y="0">i</tspan></text>
    <text class="cls-3" transform="translate(3448.1 1714.19) rotate(30.77)"><tspan x="0" y="0">g</tspan></text>
    <text class="cls-3" transform="translate(3458.88 1720.53) rotate(33.92)"><tspan x="0" y="0">n</tspan></text>
    <text class="cls-3" transform="translate(3470.2 1728.25) rotate(36.67)"><tspan x="0" y="0">i</tspan></text>
    <text class="cls-3" transform="translate(3475.22 1731.87) rotate(39.43)"><tspan x="0" y="0">n</tspan></text>
    <text class="cls-3" transform="translate(3485.72 1740.53) rotate(43.06)"><tspan x="0" y="0">g</tspan></text>
    <text class="cls-3" transform="translate(3494.84 1749.16) rotate(45.54)"><tspan x="0" y="0"> </tspan></text>
    <text class="cls-3" transform="translate(3498.52 1752.82) rotate(47.9)"><tspan x="0" y="0">T</tspan></text>
    <text class="cls-3" transform="translate(3506.23 1761.32) rotate(51.27)"><tspan x="0" y="0">o</tspan></text>
    <text class="cls-3" transform="translate(3514.26 1771.19) rotate(55.44)"><tspan x="0" y="0">m</tspan></text>
    <text class="cls-3" transform="translate(3523.91 1785.34) rotate(59.59)"><tspan x="0" y="0">o</tspan></text>
    <text class="cls-3" transform="translate(3530.37 1796.35) rotate(63.14)"><tspan x="0" y="0">r</tspan></text>
    <text class="cls-3" transform="translate(3536.18 1807.81) rotate(66.7)"><tspan x="0" y="0">r</tspan></text>
    <text class="cls-3" transform="translate(3541.26 1819.6) rotate(70.23)"><tspan x="0" y="0">o</tspan></text>
    <text class="cls-3" transform="translate(3545.65 1831.53) rotate(74.42)"><tspan x="0" y="0">w</tspan></text>
    <text class="cls-3" transform="translate(3550.33 1849.01) rotate(77.79)"><tspan x="0" y="0">’</tspan></text>
    <text class="cls-3" transform="translate(3551.68 1854.94) rotate(80.28)"><tspan x="0" y="0">s</tspan></text>
    <text class="cls-3" transform="translate(3553.63 1866.74) rotate(82.64)"><tspan x="0" y="0"> </tspan></text>
    <text class="cls-3" transform="translate(3554.36 1871.9) rotate(84.98)"><tspan x="0" y="0">E</tspan></text>
    <text class="cls-3" transform="translate(3555.4 1883.49) rotate(88.39)"><tspan x="0" y="0">x</tspan></text>
    <text class="cls-3" transform="translate(3555.75 1896.43) rotate(91.9)"><tspan x="0" y="0">p</tspan></text>
    <text class="cls-3" transform="translate(3555.33 1908.77) rotate(95.24)"><tspan x="0" y="0">e</tspan></text>
    <text class="cls-3" transform="translate(3554.3 1920.3) rotate(98.65)"><tspan x="0" y="0">r</tspan></text>
    <text class="cls-3" transform="translate(3552.27 1933.07) rotate(101.32)"><tspan x="0" y="0">i</tspan></text>
    <text class="cls-3" transform="translate(3551.12 1939.16) rotate(103.82)"><tspan x="0" y="0">e</tspan></text>
    <text class="cls-3" transform="translate(3548.38 1950.43) rotate(107.34)"><tspan x="0" y="0">n</tspan></text>
    <text class="cls-3" transform="translate(3544.3 1963.41) rotate(110.94)"><tspan x="0" y="0">c</tspan></text>
    <text class="cls-3" transform="translate(3539.92 1974.84) rotate(114.24)"><tspan x="0" y="0">e</tspan></text>
    <text class="cls-3" transform="translate(3535.13 1985.48) rotate(117.49)"><tspan x="0" y="0">s</tspan></text>
    <text class="cls-3" transform="translate(3529.55 1995.96) rotate(118.91)"><tspan x="0" y="0"> </tspan></text>
    <text class="cls-3" transform="translate(3526.99 2000.59) rotate(121.86)"><tspan x="0" y="0">•</tspan></text>
    <text class="cls-3" transform="translate(3521.83 2008.81) rotate(123.91)"><tspan x="0" y="0"> </tspan></text>
    <text class="cls-3" transform="translate(3519 2013.16) rotate(126.36)"><tspan x="0" y="0">G</tspan></text>
    <text class="cls-3" transform="translate(3511.62 2023.2) rotate(129.87)"><tspan x="0" y="0">A</tspan></text>
    <text class="cls-3" transform="translate(3503.42 2033.02) rotate(133.44)"><tspan x="0" y="0">R</tspan></text>
    <text class="cls-3" transform="translate(3494.6 2042.34) rotate(137.03)"><tspan x="0" y="0">R</tspan></text>
    <text class="cls-3" transform="translate(3485.15 2051.12) rotate(140.46)"><tspan x="0" y="0">E</tspan></text>
    <text class="cls-3" transform="translate(3476.21 2058.5) rotate(143.7)"><tspan x="0" y="0">T</tspan></text>
    <text class="cls-3" transform="translate(3466.58 2065.56) rotate(147.03)"><tspan x="0" y="0">T</tspan></text>
    <text class="cls-3" transform="translate(3456.73 2071.87) rotate(149.37)"><tspan x="0" y="0"> </tspan></text>
    <text class="cls-3" transform="translate(3452.4 2074.62) rotate(152.47)"><tspan x="0" y="0">M</tspan></text>
    <text class="cls-3" transform="translate(3437.16 2082.48) rotate(156.61)"><tspan x="0" y="0">A</tspan></text>
    <text class="cls-3" transform="translate(3425.45 2087.55) rotate(160.14)"><tspan x="0" y="0">R</tspan></text>
    <text class="cls-3" transform="translate(3413.39 2091.89) rotate(163.51)"><tspan x="0" y="0">T</tspan></text>
    <text class="cls-3" transform="translate(3402.16 2095.15) rotate(165.97)"><tspan x="0" y="0">I</tspan></text>
    <text class="cls-3" transform="translate(3396.17 2096.74) rotate(168.71)"><tspan x="0" y="0">N</tspan></text>
    <text class="cls-3" transform="translate(3382.74 2099.32) rotate(171.31)"><tspan x="0" y="0"> </tspan></text>
    <text class="cls-3" transform="translate(3377.63 2100.19) rotate(173.83)"><tspan x="0" y="0">D</tspan></text>
    <text class="cls-3" transform="translate(3364.74 2101.56) rotate(177.23)"><tspan x="0" y="0">E</tspan></text>
    <text class="cls-3" transform="translate(3353.1 2102.13) rotate(-179.5)"><tspan x="0" y="0">S</tspan></text>
    <text class="cls-3" transform="translate(3341.13 2101.96) rotate(-176.97)"><tspan x="0" y="0">I</tspan></text>
    <text class="cls-3" transform="translate(3334.95 2101.7) rotate(-174.36)"><tspan x="0" y="0">G</tspan></text>
    <text class="cls-3" transform="translate(3322.53 2100.49) rotate(-170.71)"><tspan x="0" y="0">N</tspan></text>
    <text class="cls-3" transform="translate(3309.04 2098.19) rotate(-168.08)"><tspan x="0" y="0"> </tspan></text>
    <text class="cls-3" transform="translate(3303.92 2097.15) rotate(-165.99)"><tspan x="0" y="0">•</tspan></text>
    <text class="cls-3" transform="translate(3294.52 2094.76) rotate(-163.91)"><tspan x="0" y="0"> </tspan></text>
    <text class="cls-3" transform="translate(3289.53 2093.41) rotate(-161.37)"><tspan x="0" y="0">D</tspan></text>
    <text class="cls-3" transform="translate(3277.28 2089.26) rotate(-157.96)"><tspan x="0" y="0">e</tspan></text>
    <text class="cls-3" transform="translate(3266.47 2084.88) rotate(-154.69)"><tspan x="0" y="0">s</tspan></text>
    <text class="cls-3" transform="translate(3255.69 2079.71) rotate(-152.2)"><tspan x="0" y="0">i</tspan></text>
    <text class="cls-3" transform="translate(3250.17 2076.93) rotate(-149.23)"><tspan x="0" y="0">g</tspan></text>
    <text class="cls-3" transform="translate(3239.38 2070.59) rotate(-146.07)"><tspan x="0" y="0">n</tspan></text>
    <text class="cls-3" transform="translate(3228.1 2062.89) rotate(-143.33)"><tspan x="0" y="0">i</tspan></text>
    <text class="cls-3" transform="translate(3223.08 2059.27) rotate(-140.57)"><tspan x="0" y="0">n</tspan></text>
    <text class="cls-3" transform="translate(3212.58 2050.61) rotate(-136.94)"><tspan x="0" y="0">g</tspan></text>
    <text class="cls-3" transform="translate(3203.43 2041.95) rotate(-134.45)"><tspan x="0" y="0"> </tspan></text>
    <text class="cls-3" transform="translate(3199.78 2038.32) rotate(-132.1)"><tspan x="0" y="0">T</tspan></text>
    <text class="cls-3" transform="translate(3192.04 2029.79) rotate(-128.72)"><tspan x="0" y="0">o</tspan></text>
    <text class="cls-3" transform="translate(3184.02 2019.92) rotate(-124.55)"><tspan x="0" y="0">m</tspan></text>
    <text class="cls-3" transform="translate(3174.39 2005.8) rotate(-120.41)"><tspan x="0" y="0">o</tspan></text>
    <text class="cls-3" transform="translate(3167.93 1994.8) rotate(-116.86)"><tspan x="0" y="0">r</tspan></text>
    <text class="cls-3" transform="translate(3162.12 1983.33) rotate(-113.31)"><tspan x="0" y="0">r</tspan></text>
    <text class="cls-3" transform="translate(3157.03 1971.5) rotate(-109.76)"><tspan x="0" y="0">o</tspan></text>
    <text class="cls-3" transform="translate(3152.65 1959.61) rotate(-105.58)"><tspan x="0" y="0">w</tspan></text>
    <text class="cls-3" transform="translate(3147.96 1942.1) rotate(-102.2)"><tspan x="0" y="0">’</tspan></text>
    <text class="cls-3" transform="translate(3146.61 1936.16) rotate(-99.71)"><tspan x="0" y="0">s</tspan></text>
    <text class="cls-3" transform="translate(3144.67 1924.37) rotate(-97.35)"><tspan x="0" y="0"> </tspan></text>
    <text class="cls-3" transform="translate(3143.94 1919.25) rotate(-95.02)"><tspan x="0" y="0">E</tspan></text>
    <text class="cls-3" transform="translate(3142.9 1907.62) rotate(-91.59)"><tspan x="0" y="0">x</tspan></text>
    <text class="cls-3" transform="translate(3142.55 1894.67) rotate(-88.09)"><tspan x="0" y="0">p</tspan></text>
    <text class="cls-3" transform="translate(3142.97 1882.34) rotate(-84.75)"><tspan x="0" y="0">e</tspan></text>
    <text class="cls-3" transform="translate(3144.01 1870.8) rotate(-81.34)"><tspan x="0" y="0">r</tspan></text>
    <text class="cls-3" transform="translate(3146.04 1858.03) rotate(-78.67)"><tspan x="0" y="0">i</tspan></text>
    <text class="cls-3" transform="translate(3147.2 1851.94) rotate(-76.17)"><tspan x="0" y="0">e</tspan></text>
    <text class="cls-3" transform="translate(3149.93 1840.71) rotate(-72.66)"><tspan x="0" y="0">n</tspan></text>
    <text class="cls-3" transform="translate(3154.01 1827.7) rotate(-69.05)"><tspan x="0" y="0">c</tspan></text>
    <text class="cls-3" transform="translate(3158.38 1816.3) rotate(-65.76)"><tspan x="0" y="0">e</tspan></text>
    <text class="cls-3" transform="translate(3163.17 1805.66) rotate(-62.51)"><tspan x="0" y="0">s</tspan></text>
    <text class="cls-3" transform="translate(3168.77 1795.15) rotate(-61.09)"><tspan x="0" y="0"> </tspan></text>
    <text class="cls-3" transform="translate(3171.33 1790.52) rotate(-58.13)"><tspan x="0" y="0">•</tspan></text>
    <text class="cls-3" transform="translate(3176.49 1782.29) rotate(-56.08)"><tspan x="0" y="0"> </tspan></text>
  </g>
</svg>