<?xml version="1.0" encoding="UTF-8"?>
<svg id="Layer_1" xmlns="http://www.w3.org/2000/svg" viewBox="0 0 32 32">
  <defs>
    <style>
      .cls-1 {
        fill: #452f9f;
      }

      .cls-2 {
        fill: #fff;
      }

      .cls-2, .cls-3, .cls-4 {
        stroke: #452f9f;
      }

      .cls-2, .cls-4 {
        stroke-linejoin: round;
        stroke-width: 2px;
      }

      .cls-3 {
        stroke-miterlimit: 10;
        stroke-width: 1.12px;
      }

      .cls-3, .cls-4 {
        fill: none;
        stroke-linecap: round;
      }
    </style>
  </defs>
  <path class="cls-4" d="M29.21,22.04c-.34.74-.73,1.44-1.17,2.13-.82,1.29-1.82,2.52-3.15,3.28-1.69.96-3.76,1.06-5.66.68-1.06-.21-2.11-.58-2.94-1.27-.52-.44-.94-1-1.28-1.58-.27-.45-.51-.95-.52-1.48,0-.51.21-1,.46-1.45.32-.57.7-1.12,1.21-1.53.97-.78,2.29-1,3.53-.95.35.01.72.04,1.03.2.38.19.65.55.86.92.23.4.42.83.45,1.29.07.99-.69,1.98-1.67,2.16-.59.11-1.26-.09-1.57-.6-.05-.09-.09-.2-.03-.28.03-.05.09-.07.15-.08.27-.07.56-.06.83-.14s.54-.27.58-.55c.03-.25-.14-.48-.36-.6s-.47-.15-.72-.17c-.6-.05-1.27-.04-1.7.37-.31.29-.44.73-.46,1.15-.03.42.04.85.24,1.22.27.49.76.83,1.29,1.01s1.09.23,1.65.26c.56.03,1.14.04,1.68-.14,1.23-.39,1.99-1.63,2.47-2.83.33-.81.58-1.67.52-2.54-.05-.82-.38-1.59-.82-2.28-.8-1.26-1.99-2.28-3.39-2.82-1.18-.45-2.49-.36-3.73-.29-3.34.17-6.62.67-10,.44-2.12-.14-3.18-1.37-4.05-2.05-.6-.47,5.36-1.25,5.36-1.25,0,0-5.98.12-5.98-1.04,0-1.49.75-2.73,1.75-3.77,1.06-1.11,2.23-2.16,3.6-2.87.41-.21.84-.39,1.27-.55s.91-.28,1.39-.26c.19.01.39.05.55.15.24.16.36.46.42.75.04.18,0,.79.13.9.16.14.58.02.76,0,.34-.03.68-.06,1.03-.08.7-.05,1.41-.07,2.11-.08,3.22-.02,6.61.27,9.41,2.02.8.5,1.52,1.11,2.15,1.82,2.08,2.38,3.67,5.55,3.41,8.77-.05.62-.16,1.23-.31,1.83-.19.75-.46,1.47-.78,2.18Z"/>
  <circle class="cls-1" cx="8.36" cy="7.08" r="1.08"/>
  <path class="cls-2" d="M12.93,15.72c-.24,1.08.14,2.72-.17,3.14-.09.34-1.72.38-2.64-.05-.61-.28-1.17.49-1.47.36-.29-.15-.33-.84-.24-1.36.25-1.35,2.74-.46,2.97-.39-.13-.45-.09-1.06-.21-1.69-.27-1.44.09-1.98.78-1.98.73,0,1.36.23.98,1.98Z"/>
  <path class="cls-2" d="M21.15,13.47c-.37,1.62-.07,3.81-.56,4.44-.14.51-2.24.99-3.67.35-.94-.42-1.34.61-1.79.41-.45-.22-.51-.21-.36-1,.38-2.03,4.21-.69,4.56-.59-.2-.68-1.94-2.29-2.13-3.25-.42-2.18.35-3.07,1.42-3.07,1.13,0,3.13.08,2.53,2.72Z"/>
  <circle class="cls-3" cx="7.81" cy="7.77" r="2.14"/>
</svg>