<?xml version="1.0" encoding="UTF-8"?>
<svg id="Layer_1" xmlns="http://www.w3.org/2000/svg" viewBox="0 0 32 32">
  <defs>
    <style>
      .cls-1 {
        fill: #452f9f;
      }
    </style>
  </defs>
  <path class="cls-1" d="M23.76,11.32c.06.07.1.15.15.23,1.12,1.93,2.23,3.86,3.35,5.79.08.14.17.3.14.47-.03.16-.16.27-.28.38-.36.31-.73.61-1.09.92-.13.11-.27.22-.44.24-.22.02-.42-.13-.59-.27-2.87-2.36-5.93-4.53-9.32-6.06-.13-.06-.27-.12-.41-.14-.14-.02-.29,0-.43.03-1.04.25-1.63,1.32-2.45,2-.51.42-1.13.71-1.78.82-.3.05-.7.01-.8-.28-.04-.12-.02-.25.01-.37.17-.67.55-1.24.94-1.8.4-.59.84-1.16,1.29-1.71.16-.2.33-.39.55-.53.26-.17.57-.25.88-.32,2.22-.48,4.54-.42,6.76.07.87.19,1.74.45,2.62.34.24-.03.51-.09.72.03.07.04.14.1.19.17Z"/>
  <path class="cls-1" d="M8.39,11c.11,0,.22.04.32.07.69.21,1.38.42,2.07.63.08.03.17.05.22.12.11.15-.02.35-.14.5-.43.51-.79,1.08-1.08,1.68-.16.34-.3.69-.3,1.06s.17.76.5.94c.27.15.6.13.9.09,1.25-.19,2.43-.82,3.28-1.77.35-.39.72-.86,1.24-.87.27,0,.95.48,1.19.6,3.03,1.59,5.52,3.03,8.18,5.18.32.25.63.52.83.88s.24.82.01,1.15c-.23.34-.7.46-1.1.4s-.78-.27-1.13-.48c-1.27-.74-2.53-1.51-3.77-2.29-.24-.15-.62-.27-.75-.02-.13.23.14.48.37.61,1.09.62,2.18,1.25,3.27,1.87.52.3,1.12.74,1.04,1.33-.06.49-.61.81-1.1.8s-.95-.26-1.39-.5c-.91-.51-1.82-1.02-2.73-1.53-.26-.14-.59-.29-.83-.11.24.54.79.86,1.31,1.14.69.38,1.39.76,2.08,1.14.23.12.46.25.62.46s.22.51.07.72c-.17.25-.54.27-.84.24-.73-.07-1.45-.24-2.13-.52-.78-.32-1.55-.77-2.39-.74-.04.37.35.63.69.8.65.32,1.31.64,1.96.96.09.05.19.09.25.18.16.25-.1.56-.37.69-.97.48-2.12.25-3.17,0-.18-.04-.38-.11-.44-.28-.04-.12,0-.26.05-.38.31-.98-.17-2.15-1.07-2.63-.18-.1-.39-.18-.51-.35-.1-.14-.13-.32-.17-.49-.21-.79-1.01-1.39-1.83-1.37.17-.78-.31-1.65-1.06-1.93s-1.68.08-2.05.78c-.49-.81-1.52-1.24-2.44-1.01-.15.04-.29.09-.44.07-.22-.03-.38-.2-.53-.37-.27-.3-.56-.66-.5-1.05.02-.16.1-.3.18-.44.88-1.58,1.76-3.17,2.64-4.75.19-.35.37-.7.58-1.04.1-.16.27-.2.44-.18Z"/>
  <path class="cls-1" d="M3.01,17.96l-1.73-1.06c-.18-.11-.23-.34-.13-.51l4.65-8.05c.11-.19.35-.25.53-.13l1.68,1.03c.17.11.23.33.13.51l-4.6,8.08c-.11.19-.35.25-.53.14Z"/>
  <path class="cls-1" d="M30.65,16.97l-1.63.85c-.23.12-.51.03-.63-.19l-4.43-7.96c-.13-.23-.04-.53.19-.65l1.58-.82c.23-.12.51-.04.63.19l4.49,7.93c.13.23.04.53-.19.65Z"/>
  <path class="cls-1" d="M5.71,21.88h-.02c-.47-.37-.59-1.01-.26-1.45l.75-1.03c.33-.45.99-.52,1.47-.16h0c.46.35.58.98.27,1.42l-.74,1.04c-.33.46-.99.54-1.48.17Z"/>
  <path class="cls-1" d="M7.88,23.41l-.02-.02c-.47-.35-.59-.98-.27-1.41l1.53-2.09c.32-.44.98-.5,1.46-.14h0c.46.35.59.97.28,1.4l-1.51,2.11c-.32.45-.98.51-1.46.15Z"/>
  <path class="cls-1" d="M10.14,24.82l-.02-.02c-.47-.35-.58-.99-.26-1.43l1.21-1.65c.33-.45.99-.52,1.47-.16h0c.46.35.58.98.27,1.42l-1.19,1.67c-.33.46-.99.53-1.47.17Z"/>
  <path class="cls-1" d="M12.74,26.2l-.02-.02c-.47-.35-.63-.94-.35-1.31l.68-.93c.28-.38.9-.4,1.38-.04h0c.46.35.62.93.36,1.3l-.67.94c-.28.39-.9.41-1.38.05Z"/>
</svg>