<?xml version="1.0" encoding="UTF-8"?>
<svg id="Layer_1" xmlns="http://www.w3.org/2000/svg" viewBox="0 0 32 32">
  <defs>
    <style>
      .cls-1 {
        fill: #452f9f;
      }
    </style>
  </defs>
  <path class="cls-1" d="M23.33,11.64c.05.07.09.14.14.21,1.04,1.8,2.08,3.6,3.12,5.41.08.13.16.28.13.43-.03.15-.15.25-.26.35-.34.28-.68.57-1.02.85-.12.1-.25.21-.41.22-.21.02-.39-.12-.55-.25-2.68-2.2-5.53-4.23-8.69-5.65-.12-.06-.25-.11-.38-.13-.13-.02-.27,0-.4.03-.97.23-1.52,1.23-2.29,1.87-.47.39-1.05.66-1.66.77-.28.05-.65.01-.75-.26-.04-.11-.02-.23.01-.35.16-.62.51-1.16.87-1.68.38-.55.78-1.08,1.21-1.59.15-.18.31-.37.51-.5.24-.16.53-.24.82-.3,2.07-.45,4.24-.39,6.31.07.81.18,1.63.42,2.45.32.23-.03.47-.08.67.03.07.04.13.09.18.16Z"/>
  <path class="cls-1" d="M8.75,11.34c.1,0,.21.04.3.06.66.2,1.31.4,1.97.6.08.02.16.05.21.12.11.14-.02.34-.13.47-.41.49-.75,1.03-1.02,1.6-.15.32-.28.66-.28,1.01s.16.72.47.89c.26.14.57.13.86.08,1.19-.18,2.31-.78,3.12-1.68.33-.37.68-.82,1.17-.83.25,0,.91.45,1.13.57,2.88,1.51,5.24,2.88,7.77,4.92.3.24.6.5.79.83s.23.78.01,1.1c-.22.32-.66.44-1.05.38s-.74-.26-1.08-.46c-1.21-.71-2.4-1.43-3.59-2.18-.23-.14-.59-.26-.72-.02-.12.22.14.46.36.58,1.04.59,2.08,1.19,3.11,1.78.49.28,1.06.7.99,1.27-.06.47-.58.77-1.05.76s-.91-.25-1.32-.48c-.86-.48-1.73-.97-2.59-1.45-.25-.14-.56-.27-.79-.1.23.51.75.81,1.24,1.08.66.36,1.32.72,1.98,1.08.22.12.44.24.59.44s.21.49.06.69c-.17.24-.51.26-.8.23-.69-.06-1.38-.23-2.03-.49-.74-.3-1.47-.74-2.27-.7-.04.35.33.6.65.76.62.31,1.24.61,1.86.92.09.04.18.09.23.17.16.23-.1.53-.35.66-.92.46-2.01.23-3.01,0-.17-.04-.36-.1-.42-.27-.04-.12,0-.24.04-.36.29-.93-.16-2.04-1.02-2.5-.17-.09-.37-.17-.49-.33-.1-.13-.12-.31-.16-.46-.2-.76-.96-1.32-1.74-1.3.16-.74-.29-1.57-1.01-1.83s-1.59.07-1.95.74c-.46-.77-1.45-1.18-2.32-.96-.14.03-.28.08-.42.06-.21-.03-.36-.19-.5-.35-.26-.28-.53-.62-.47-1,.02-.15.1-.29.17-.42.84-1.51,1.67-3.01,2.51-4.52.18-.33.36-.67.55-.99.09-.16.25-.19.42-.17Z"/>
  <path class="cls-1" d="M3.45,17.94l-1.67-1.03c-.17-.1-.22-.32-.13-.5l4.49-7.78c.1-.18.33-.24.51-.13l1.62,1c.17.1.22.32.13.49l-4.44,7.81c-.1.18-.33.24-.51.13Z"/>
  <path class="cls-1" d="M30.15,16.99l-1.58.82c-.22.11-.49.03-.61-.18l-4.28-7.69c-.13-.23-.04-.51.19-.63l1.53-.8c.22-.11.49-.03.61.18l4.33,7.66c.13.23.04.51-.19.63Z"/>
  <path class="cls-1" d="M6.06,21.73h-.02c-.45-.36-.57-.97-.25-1.4l.73-.99c.32-.43.96-.5,1.42-.16h0c.45.34.56.95.26,1.38l-.71,1c-.31.44-.96.52-1.43.17Z"/>
  <path class="cls-1" d="M8.15,23.2l-.02-.02c-.45-.34-.57-.95-.26-1.36l1.48-2.02c.31-.42.95-.49,1.41-.13h0c.45.34.57.94.27,1.35l-1.46,2.03c-.31.43-.95.5-1.41.14Z"/>
  <path class="cls-1" d="M10.34,24.57l-.02-.02c-.45-.34-.56-.96-.25-1.38l1.17-1.59c.32-.43.96-.5,1.42-.15h0c.45.34.56.95.26,1.37l-1.15,1.61c-.32.44-.96.51-1.42.16Z"/>
  <path class="cls-1" d="M12.85,25.9h-.02c-.45-.36-.61-.92-.34-1.28l.66-.9c.27-.37.87-.38,1.33-.04h0c.45.34.6.9.35,1.26l-.64.91c-.27.38-.87.4-1.34.05Z"/>
</svg>