<?xml version="1.0" encoding="UTF-8"?>
<svg id="Layer_1" xmlns="http://www.w3.org/2000/svg" viewBox="0 0 32 32">
  <defs>
    <style>
      .cls-1 {
        stroke-width: 1.96px;
      }

      .cls-1, .cls-2, .cls-3, .cls-4, .cls-5 {
        fill: none;
        stroke: #452f9f;
        stroke-linecap: round;
        stroke-miterlimit: 10;
      }

      .cls-2 {
        stroke-width: 1.83px;
      }

      .cls-3 {
        stroke-width: 3.14px;
      }

      .cls-4 {
        stroke-width: .64px;
      }

      .cls-5 {
        stroke-width: 1.04px;
      }
    </style>
  </defs>
  <path class="cls-2" d="M26.31,9.95l-6.75,9.94c-.57.84-1.71,1.05-2.54.49l-6.76-4.59c-.84-.57-1.05-1.71-.49-2.54l6.75-9.94c.57-.84,1.71-1.05,2.54-.49l3.38,2.3,3.38,2.3c.84.57,1.05,1.71.49,2.54Z"/>
  <rect class="cls-1" x="15.31" y="4.74" width="11.83" height="4.36" rx=".73" ry=".73" transform="translate(7.55 -10.73) rotate(34.19)"/>
  <line class="cls-5" x1="21.3" y1="12.93" x2="17.93" y2="17.9"/>
  <line class="cls-5" x1="24.09" y1="2.69" x2="21.43" y2="6.61"/>
  <line class="cls-5" x1="13.48" y1="17.73" x2="11.01" y2="21.37"/>
  <line class="cls-3" x1="10.46" y1="22.18" x2="5.43" y2="29.58"/>
  <line class="cls-4" x1="20.29" y1="6.28" x2="22.16" y2="7.55"/>
  <line class="cls-5" x1="19.24" y1="13.14" x2="16.61" y2="17"/>
  <line class="cls-5" x1="16.12" y1="14.8" x2="15.19" y2="16.17"/>
  <line class="cls-5" x1="19.42" y1="15.28" x2="17.17" y2="13.76"/>
</svg>