<?xml version="1.0" encoding="UTF-8"?>
<svg id="Layer_1" xmlns="http://www.w3.org/2000/svg" viewBox="0 0 32 32">
  <defs>
    <style>
      .cls-1 {
        stroke-width: 2.88px;
      }

      .cls-1, .cls-2, .cls-3, .cls-4, .cls-5, .cls-6, .cls-7, .cls-8, .cls-9, .cls-10, .cls-11, .cls-12, .cls-13, .cls-14, .cls-15 {
        fill: none;
        stroke: #452f9f;
        stroke-linecap: round;
        stroke-miterlimit: 10;
      }

      .cls-2 {
        stroke-width: .21px;
      }

      .cls-3 {
        stroke-width: .21px;
      }

      .cls-4 {
        stroke-width: .96px;
      }

      .cls-5 {
        stroke-width: .36px;
      }

      .cls-6 {
        stroke-width: .35px;
      }

      .cls-7 {
        stroke-width: .39px;
      }

      .cls-8 {
        stroke-width: .59px;
      }

      .cls-9 {
        stroke-width: .65px;
      }

      .cls-10 {
        stroke-width: .61px;
      }

      .cls-11 {
        stroke-width: .62px;
      }

      .cls-12 {
        stroke-width: 1.05px;
      }

      .cls-13 {
        stroke-width: 1.68px;
      }

      .cls-14 {
        stroke-width: 1.8px;
      }

      .cls-15 {
        stroke-width: .13px;
      }
    </style>
  </defs>
  <g>
    <path class="cls-5" d="M10.11,5.35l-2.35.3c-.2.02-.38-.11-.4-.31l-.2-1.6c-.02-.2.11-.38.31-.4l2.35-.3c.2-.02.38.11.4.31l.1.8.1.8c.02.2-.11.38-.31.4Z"/>
    <rect class="cls-7" x="8.73" y="3.77" width="2.33" height=".86" rx=".43" ry=".43" transform="translate(12.82 -6.14) rotate(82.79)"/>
    <line class="cls-2" x1="9.02" y1="4.99" x2="7.84" y2="5.14"/>
    <line class="cls-2" x1="11.69" y1="3.97" x2="9.97" y2="4.19"/>
    <line class="cls-2" x1="7.29" y1="4.46" x2="5.57" y2="4.68"/>
    <line class="cls-11" x1="5.56" y1="4.68" x2="1.23" y2="5.23"/>
    <line class="cls-15" x1="9.87" y1="3.98" x2="9.92" y2="4.42"/>
    <line class="cls-2" x1="8.56" y1="4.74" x2="7.8" y2="4.83"/>
  </g>
  <g>
    <path class="cls-10" d="M18.12,24.58l2.73-2.93c.23-.25.62-.26.86-.03l1.99,1.86c.25.23.26.62.03.86l-2.73,2.93c-.23.25-.62.26-.86.03l-1-.93-1-.93c-.25-.23-.26-.62-.03-.86Z"/>
    <rect class="cls-9" x="17.67" y="25.11" width="3.95" height="1.45" rx=".73" ry=".73" transform="translate(16.4 58.13) rotate(-137.01)"/>
    <line class="cls-6" x1="19.93" y1="23.85" x2="21.29" y2="22.39"/>
    <line class="cls-6" x1="17.56" y1="28.08" x2="19.56" y2="25.93"/>
    <line class="cls-6" x1="22.75" y1="22.67" x2="24.75" y2="20.52"/>
    <line class="cls-12" x1="24.76" y1="20.51" x2="29.8" y2="15.1"/>
    <line class="cls-3" x1="19.92" y1="26.09" x2="19.37" y2="25.58"/>
    <line class="cls-6" x1="20.8" y1="23.69" x2="21.68" y2="22.75"/>
  </g>
  <g>
    <path class="cls-13" d="M24.34,10.43l-6.2,9.12c-.52.77-1.57.97-2.33.45l-6.21-4.22c-.77-.52-.97-1.57-.45-2.33l6.2-9.12c.52-.77,1.57-.97,2.33-.45l3.1,2.11,3.1,2.11c.77.52.97,1.57.45,2.33Z"/>
    <rect class="cls-14" x="14.23" y="5.64" width="10.87" height="4" rx=".73" ry=".73" transform="translate(7.69 -9.73) rotate(34.19)"/>
    <line class="cls-4" x1="19.73" y1="13.17" x2="16.64" y2="17.73"/>
    <line class="cls-4" x1="22.3" y1="3.77" x2="19.86" y2="7.36"/>
    <line class="cls-4" x1="12.56" y1="17.57" x2="10.28" y2="20.92"/>
    <line class="cls-1" x1="9.78" y1="21.66" x2="5.16" y2="28.46"/>
    <line class="cls-8" x1="18.81" y1="7.06" x2="20.52" y2="8.23"/>
    <line class="cls-4" x1="17.84" y1="13.36" x2="15.43" y2="16.91"/>
    <line class="cls-4" x1="14.98" y1="14.89" x2="14.12" y2="16.15"/>
    <line class="cls-4" x1="18.01" y1="15.33" x2="15.95" y2="13.93"/>
  </g>
</svg>