<?xml version="1.0" encoding="UTF-8"?>
<svg id="Layer_1" xmlns="http://www.w3.org/2000/svg" viewBox="0 0 24.18 30.06">
  <defs>
    <style>
      .cls-1 {
        stroke-width: 1.04px;
      }

      .cls-1, .cls-2, .cls-3, .cls-4, .cls-5 {
        fill: none;
        stroke: #fff;
        stroke-linecap: round;
        stroke-miterlimit: 10;
      }

      .cls-2 {
        stroke-width: 3.14px;
      }

      .cls-3 {
        stroke-width: .64px;
      }

      .cls-4 {
        stroke-width: 1.83px;
      }

      .cls-5 {
        stroke-width: 1.96px;
      }
    </style>
  </defs>
  <path class="cls-4" d="M22.45,8.86l-6.75,9.94c-.57.84-1.71,1.05-2.54.49l-6.76-4.59c-.84-.57-1.05-1.71-.49-2.54L12.66,2.21c.57-.84,1.71-1.05,2.54-.49l3.38,2.3,3.38,2.3c.84.57,1.05,1.71.49,2.54Z"/>
  <rect class="cls-5" x="11.45" y="3.65" width="11.83" height="4.36" rx=".73" ry=".73" transform="translate(6.27 -8.75) rotate(34.19)"/>
  <line class="cls-1" x1="17.44" y1="11.84" x2="14.07" y2="16.81"/>
  <line class="cls-1" x1="20.23" y1="1.6" x2="17.57" y2="5.52"/>
  <line class="cls-1" x1="9.62" y1="16.64" x2="7.15" y2="20.28"/>
  <line class="cls-2" x1="6.6" y1="21.09" x2="1.57" y2="28.49"/>
  <line class="cls-3" x1="16.43" y1="5.19" x2="18.3" y2="6.46"/>
  <line class="cls-1" x1="15.38" y1="12.05" x2="12.75" y2="15.91"/>
  <line class="cls-1" x1="12.26" y1="13.71" x2="11.33" y2="15.08"/>
  <line class="cls-1" x1="15.56" y1="14.19" x2="13.32" y2="12.67"/>
</svg>