<?xml version="1.0" encoding="UTF-8"?>
<svg id="Layer_1" xmlns="http://www.w3.org/2000/svg" viewBox="0 0 32 32">
  <defs>
    <style>
      .cls-1 {
        fill: #fff;
        stroke-linejoin: round;
      }

      .cls-1, .cls-2, .cls-3 {
        stroke: #452f9f;
      }

      .cls-1, .cls-3 {
        stroke-width: 2px;
      }

      .cls-2 {
        stroke-width: .99px;
      }

      .cls-2, .cls-3 {
        fill: none;
        stroke-miterlimit: 10;
      }
    </style>
  </defs>
  <circle class="cls-3" cx="13.38" cy="6.36" r="4.6"/>
  <circle class="cls-2" cx="2.96" cy="11.52" r="2.27"/>
  <circle class="cls-2" cx="28.02" cy="7.38" r="2.27"/>
  <line class="cls-3" x1="5.09" y1="10.75" x2="9.38" y2="8.63"/>
  <line class="cls-3" x1="17.97" y1="6.9" x2="25.74" y2="7.38"/>
  <path class="cls-1" d="M22.95,29.78c0-.45,0-.9,0-1.36,0-.73-.17-1.46.08-2.16.15-.43.33-.84.48-1.27.32-.85.87-1.92.87-2.85v-8.43s-.11-1.5-1.44-1.5-1.52,1.62-1.52,1.62v3.88-6.13s-.3-1.08-1.55-1.08-1.55,1.2-1.55,1.2v4.19l-.22-4.31s0-1.08-1.27-1.08-1.49,1.08-1.49,1.08l-.11,4.31-.14-9.3s-.17-1.11-1.41-1.11-1.41.97-1.41.97v12.82c0-.61-.13-1.24-.19-1.85l-.25-2.47c-.07-.72-.64-1.07-1.35-1.07-.94,0-1.27,1.2-1.27,1.2v6.74s.19,1.35.75,2.06,2.18,1.94,2.18,5.42l-.03.46s10.82,0,10.82,0Z"/>
</svg>