<?xml version="1.0" encoding="UTF-8"?>
<svg id="Layer_1" xmlns="http://www.w3.org/2000/svg" viewBox="0 0 32 32">
  <defs>
    <style>
      .cls-1 {
        fill: #464646;
      }

      .cls-2 {
        fill: none;
        stroke: #464646;
        stroke-linecap: round;
        stroke-miterlimit: 10;
        stroke-width: 2px;
      }
    </style>
  </defs>
  <path class="cls-1" d="M27.88,11.94c0-.55-.45-1-1-1s-1,.45-1,1v15.65c0,1.1-.9,2-2,2H7.65c-1.1,0-2-.9-2-2v-15.65c0-.55-.45-1-1-1s-1,.45-1,1v15.65c0,2.21,1.79,4,4,4h16.24c2.21,0,4-1.79,4-4v-15.65"/>
  <path class="cls-2" d="M1.06,11.94L14.69,3.1c.65-.42,1.49-.43,2.15-.02l14.1,8.85"/>
  <path class="cls-1" d="M11.18,25.41c0,.55.45,1,1,1s1-.45,1-1v-7.3c0-1.1.9-2,2-2h1.18c1.1,0,2,.9,2,2v7.3c0,.55.45,1,1,1s1-.45,1-1v-7.3c0-2.21-1.79-4-4-4h-1.18c-2.21,0-4,1.79-4,4v7.3"/>
</svg>